# xmcd
#
# Track frame offsets: 
#        150
#        21305
#        41162
#        53070
#        72910
#        85817
#        99745
#        113985
#        136315
#        154552
#        169500
#
# Disc length: 2472 seconds
#
# Revision: 2
# Processed by: cddbd v1.5.1PL2 Copyright (c) Steve Scherf et al.
# Submitted via: ExactAudioCopy v0.95b3
#
DISCID=8d09a60b
DTITLE=Gary P. Nunn - Border States
DYEAR=1986
DGENRE=Country
TTITLE0=What I Like About Texas
TTITLE1=I Taught Her Everything She Knows
TTITLE2=Too Many Nights In A Roadhouse
TTITLE3=The Money's No Good
TTITLE4=Lesson To Be Learned From Love
TTITLE5=Think I'll Go To Mexico
TTITLE6=Town And Country Taverns
TTITLE7=Old Fashion Love
TTITLE8=Alamogordo
TTITLE9=The Old Home Place
TTITLE10=The Farm
EXTD=
EXTT0=
EXTT1=
EXTT2=
EXTT3=
EXTT4=
EXTT5=
EXTT6=
EXTT7=
EXTT8=
EXTT9=
EXTT10=
PLAYORDER=
